<svg id="Layer_1" data-name="Layer 1" xmlns="http://www.w3.org/2000/svg" viewBox="0 0 144.06 143"><title>Artboard 5 copy 3</title><path d="M127.79.36a15.52,15.52,0,0,0-13.65,22.93L88.71,48.72a20.56,20.56,0,0,0-25.35,0L43.52,28.88A10.21,10.21,0,0,0,45,23.65,10.35,10.35,0,1,0,34.64,34a10.21,10.21,0,0,0,5.22-1.47L59.71,52.38a20.57,20.57,0,0,0,0,25.35L26.94,110.5a15.37,15.37,0,1,0,3.23,4.08l33.2-33.2a20.58,20.58,0,0,0,10.09,4.19v26.29a15.53,15.53,0,1,0,5.18,0V85.57a20.58,20.58,0,0,0,10.09-4.19l19.84,19.84a10.21,10.21,0,0,0-1.47,5.23,10.35,10.35,0,1,0,10.35-10.35,10.21,10.21,0,0,0-5.22,1.47L92.37,77.73a20.57,20.57,0,0,0,0-25.35l25-25a15.51,15.51,0,1,0,10.41-27ZM29.46,23.65a5.18,5.18,0,1,1,5.18,5.18A5.18,5.18,0,0,1,29.46,23.65ZM16.53,132.33A10.35,10.35,0,1,1,26.88,122,10.36,10.36,0,0,1,16.53,132.33Zm69.86-5.18A10.35,10.35,0,1,1,76,116.81,10.36,10.36,0,0,1,86.39,127.16ZM76,80.58A15.53,15.53,0,1,1,91.57,65.05,15.54,15.54,0,0,1,76,80.58Zm46.58,25.88a5.18,5.18,0,1,1-5.18-5.18A5.18,5.18,0,0,1,122.62,106.46Zm5.18-80.22a10.35,10.35,0,1,1,10.35-10.35A10.36,10.36,0,0,1,127.79,26.24Z"/></svg>