<svg id="Layer_1" data-name="Layer 1" xmlns="http://www.w3.org/2000/svg" viewBox="0 0 245 215"><defs><style>.cls-1{fill:#3047d3;}</style></defs><title>Artboard 9</title><path class="cls-1" d="M237.86.29H8.82A3.77,3.77,0,0,0,5,4.06V210.45a3.77,3.77,0,0,0,3.78,3.78h229a3.77,3.77,0,0,0,3.78-3.78V4.06A3.77,3.77,0,0,0,237.86.29Zm-3.78,206.39H12.6V7.84H152.29V30.49H23.92a3.78,3.78,0,1,0,0,7.55H222.76a3.78,3.78,0,1,0,0-7.55H159.84V7.84h74.25Z"/><circle class="cls-1" cx="197.09" cy="19.17" r="3.78"/><circle class="cls-1" cx="176.45" cy="19.17" r="3.78"/><circle class="cls-1" cx="217.73" cy="19.17" r="3.78"/><path class="cls-1" d="M123.34,93a28,28,0,1,0,12.8,52.85,3.78,3.78,0,0,0-3.46-6.71,20.19,20.19,0,0,1-9.34,2.26A20.43,20.43,0,1,1,143.77,121a20.2,20.2,0,0,1-2.26,9.34,3.78,3.78,0,1,0,6.71,3.46A28,28,0,0,0,123.34,93Z"/><path class="cls-1" d="M185.3,107.14H169.43a47.75,47.75,0,0,0-3.72-8.94L176.94,87a3.78,3.78,0,0,0,0-5.34L162.71,67.38a3.78,3.78,0,0,0-5.34,0L146.13,78.61a47.77,47.77,0,0,0-8.94-3.72V59a3.77,3.77,0,0,0-3.78-3.78H113.28A3.77,3.77,0,0,0,109.5,59V74.9a47.75,47.75,0,0,0-8.94,3.72L89.32,67.38a3.78,3.78,0,0,0-5.34,0L69.74,81.61a3.78,3.78,0,0,0,0,5.34L81,98.19a47.77,47.77,0,0,0-3.72,8.94H61.38a3.77,3.77,0,0,0-3.78,3.78V131a3.77,3.77,0,0,0,3.78,3.78H77.26A47.7,47.7,0,0,0,81,143.77L69.74,155a3.78,3.78,0,0,0,0,5.34L84,174.58a3.78,3.78,0,0,0,5.34,0l11.24-11.24a47.77,47.77,0,0,0,8.94,3.72v15.88a3.77,3.77,0,0,0,3.78,3.78h20.14a3.77,3.77,0,0,0,3.78-3.78V167.06a47.75,47.75,0,0,0,8.94-3.72l11.24,11.24a3.78,3.78,0,0,0,5.34,0l14.24-14.24a3.78,3.78,0,0,0,0-5.34l-11.24-11.24a47.75,47.75,0,0,0,3.72-8.94H185.3a3.77,3.77,0,0,0,3.78-3.78V110.91A3.78,3.78,0,0,0,185.3,107.14Zm-3.78,20.14h-15a3.78,3.78,0,0,0-3.68,2.92,40.25,40.25,0,0,1-5.07,12.19,3.77,3.77,0,0,0,.53,4.67l10.62,10.62-8.9,8.9-10.62-10.62a3.78,3.78,0,0,0-4.67-.53,40.24,40.24,0,0,1-12.19,5.07,3.78,3.78,0,0,0-2.92,3.68v15H117.05v-15a3.78,3.78,0,0,0-2.92-3.68,40.25,40.25,0,0,1-12.19-5.07,3.78,3.78,0,0,0-4.67.53L86.65,166.57l-8.9-8.9,10.62-10.62a3.77,3.77,0,0,0,.53-4.67,40.24,40.24,0,0,1-5.07-12.19,3.78,3.78,0,0,0-3.68-2.92h-15V114.69h15a3.78,3.78,0,0,0,3.68-2.92,40.25,40.25,0,0,1,5.07-12.19,3.77,3.77,0,0,0-.53-4.67L77.75,84.28l8.9-8.9L97.27,86a3.77,3.77,0,0,0,4.67.53,40.24,40.24,0,0,1,12.19-5.07,3.78,3.78,0,0,0,2.92-3.68v-15h12.58v15a3.78,3.78,0,0,0,2.92,3.68,40.25,40.25,0,0,1,12.19,5.07,3.78,3.78,0,0,0,4.67-.53L160,75.39l8.9,8.9L158.31,94.91a3.78,3.78,0,0,0-.53,4.67,40.24,40.24,0,0,1,5.07,12.19,3.78,3.78,0,0,0,3.68,2.92h15v12.58Z"/></svg>