<?xml version="1.0" encoding="utf-8"?>
<!-- Generator: Adobe Illustrator 21.0.1, SVG Export Plug-In . SVG Version: 6.00 Build 0)  -->
<svg version="1.1" id="Layer_1" xmlns="http://www.w3.org/2000/svg" xmlns:xlink="http://www.w3.org/1999/xlink" x="0px" y="0px"
	 viewBox="0 0 29.5 29.7" style="enable-background:new 0 0 29.5 29.7;" xml:space="preserve">
<style type="text/css">
	.st0{fill:#3047D3;}
</style>
<title>Artboard 8 copy 4</title>
<path class="st0" d="M14.8,0.6C6.9,0.6,0.5,6.9,0.5,14.8c0,7.9,6.4,14.3,14.2,14.3S29,22.8,29,14.9c0,0,0,0,0,0
	C29,7,22.6,0.6,14.8,0.6z M14.8,22c-3.9,0-7.1-3.2-7.1-7.1s3.2-7.1,7.1-7.1s7.1,3.2,7.1,7.1v0C21.9,18.8,18.7,22,14.8,22
	C14.8,22,14.8,22,14.8,22L14.8,22z"/>
</svg>
