<?xml version="1.0" encoding="utf-8"?>
<!-- Generator: Adobe Illustrator 21.0.1, SVG Export Plug-In . SVG Version: 6.00 Build 0)  -->
<svg version="1.1" id="Layer_1" xmlns="http://www.w3.org/2000/svg" xmlns:xlink="http://www.w3.org/1999/xlink" x="0px" y="0px"
	 viewBox="0 0 45.9 45" style="enable-background:new 0 0 45.9 45;" xml:space="preserve">
<style type="text/css">
	.st0{fill:#FFFFFF;}
</style>
<title>Artboard 8 copy</title>
<path class="st0" d="M14.6,14.9L4.3,4.6l4-4C8.9,0,9.9,0,10.5,0.6l8.1,8.1c0.6,0.6,0.6,1.6,0,2.2l-1.8,1.8l-1.6,1.6
	C14.9,14.5,14.8,14.7,14.6,14.9z M23.1,31.8c-1.7-1.5-3.3-3-4.9-4.6s-3.1-3.2-4.6-4.9c-1.2-1.4-1.5-3.4-0.8-5.1L2.2,6.6
	C-0.3,9.2,0.1,15.5,2.8,21C4,23.3,5.4,25.6,7,27.6c1.6,2,3.3,4,5.1,5.8c1.8,1.8,3.7,3.5,5.8,5.1c2.1,1.6,4.3,3,6.6,4.2
	c5.5,2.7,11.8,3,14.4,0.5L28.2,32.6C26.5,33.3,24.5,32.9,23.1,31.8L23.1,31.8z M44.9,34.9l-8.1-8.1c-0.6-0.6-1.6-0.6-2.2,0l0,0
	l-1.8,1.8l-1.6,1.6c-0.2,0.2-0.4,0.4-0.7,0.5l10.3,10.4l4-4C45.5,36.6,45.5,35.6,44.9,34.9C44.9,34.9,44.9,34.9,44.9,34.9L44.9,34.9
	z"/>
</svg>
