<svg id="Layer_1" data-name="Layer 1" xmlns="http://www.w3.org/2000/svg" viewBox="0 0 65.88 90"><defs><style>.cls-1{fill:#3047d3;}</style></defs><title>Artboard 8</title><path class="cls-1" d="M63.63.18H2.25A1.79,1.79,0,0,0,.47,2V88a1.79,1.79,0,0,0,1.79,1.79H48.92a1.79,1.79,0,0,0,1.26-.52L64.89,74.59a1.79,1.79,0,0,0,.52-1.26V2A1.79,1.79,0,0,0,63.63.18ZM50.7,83.73V75.1h8.62ZM61.84,71.54H48.91a1.79,1.79,0,0,0-1.79,1.79V86.25H4V3.75h57.8Z"/><path class="cls-1" d="M18.76,64.6a8.14,8.14,0,1,0,8.14,8.14A8.15,8.15,0,0,0,18.76,64.6Zm0,12.72a4.57,4.57,0,1,1,4.57-4.57A4.58,4.58,0,0,1,18.76,77.32Z"/><path class="cls-1" d="M42,71.25H32.23a1.79,1.79,0,0,0,0,3.57H42a1.79,1.79,0,1,0,0-3.57Z"/><path class="cls-1" d="M18.12,10.89H12.94a1.79,1.79,0,1,0,0,3.57h5.18a1.79,1.79,0,1,0,0-3.57Z"/><path class="cls-1" d="M53.65,10.89H38.12a1.79,1.79,0,1,0,0,3.57H53.65a1.79,1.79,0,1,0,0-3.57Z"/><path class="cls-1" d="M53.65,18.57H27.23a1.79,1.79,0,1,0,0,3.57H53.65a1.79,1.79,0,1,0,0-3.57Z"/><path class="cls-1" d="M53.74,32.68H12.14a1.79,1.79,0,0,0,0,3.57h41.6a1.79,1.79,0,0,0,0-3.57Z"/><path class="cls-1" d="M53.74,38.75H12.14a1.79,1.79,0,0,0,0,3.57h41.6a1.79,1.79,0,0,0,0-3.57Z"/><path class="cls-1" d="M53.74,45.36H12.14a1.79,1.79,0,0,0,0,3.57h41.6a1.79,1.79,0,0,0,0-3.57Z"/><path class="cls-1" d="M53.74,51.43h-1a1.79,1.79,0,0,0,0,3.57h1a1.79,1.79,0,1,0,0-3.57Z"/><path class="cls-1" d="M46.51,51.43H12.14a1.79,1.79,0,0,0,0,3.57H46.51a1.79,1.79,0,0,0,0-3.57Z"/></svg>