<svg id="Layer_1" data-name="Layer 1" xmlns="http://www.w3.org/2000/svg" viewBox="0 0 45.87 45"><title>Artboard 8 copy 3</title><path d="M31.71,31.92a.72.72,0,1,0-.17,1.44c7.61.9,11.67,3.31,11.67,4.71,0,2-7.71,4.71-20.27,4.71S2.67,40,2.67,38.07c0-1.4,4.05-3.81,11.67-4.71a.72.72,0,1,0-.17-1.44c-7.62.9-12.95,3.43-12.95,6.15,0,3.06,7.46,6.15,21.72,6.15s21.72-3.1,21.72-6.15C44.66,35.34,39.33,32.81,31.71,31.92Z"/><path d="M32.63,4.85A13.88,13.88,0,0,0,13,4.85c-4.85,4.85-5.46,14-1.31,19.51L22.81,40.42l11.11-16C38.08,18.83,37.48,9.7,32.63,4.85ZM22.81,19.31a4.77,4.77,0,1,1,4.77-4.77A4.77,4.77,0,0,1,22.81,19.31Z"/></svg>