<?xml version="1.0" encoding="utf-8"?>
<!-- Generator: Adobe Illustrator 21.0.1, SVG Export Plug-In . SVG Version: 6.00 Build 0)  -->
<svg version="1.1" id="Layer_1" xmlns="http://www.w3.org/2000/svg" xmlns:xlink="http://www.w3.org/1999/xlink" x="0px" y="0px"
	 viewBox="0 0 60.8 45" style="enable-background:new 0 0 60.8 45;" xml:space="preserve">
<style type="text/css">
	.st0{fill:#FFFFFF;}
</style>
<title>Artboard 8 copy 2</title>
<path class="st0" d="M60.2,37.4c0,1.3-0.4,2.5-1,3.6L40.4,19.9L59.1,3.6c0.8,1.2,1.2,2.6,1.2,4V37.4z M30.4,23.8L56.3,1.1
	c-1.1-0.6-2.3-0.9-3.6-0.9H8c-1.2,0-2.5,0.3-3.6,0.9L30.4,23.8z M37.6,22.4l-6,5.2c-0.7,0.6-1.7,0.6-2.5,0l-6-5.2L4.1,43.7
	c1.2,0.7,2.5,1.1,3.9,1.1h44.8c1.4,0,2.8-0.4,3.9-1.2L37.6,22.4z M1.7,3.6C1,4.8,0.6,6.2,0.6,7.6v29.8c0,1.3,0.4,2.5,1,3.6
	l18.8-21.1L1.7,3.6z"/>
</svg>
