<svg id="Layer_1" data-name="Layer 1" xmlns="http://www.w3.org/2000/svg" viewBox="0 0 60.8 45"><defs><style>.cls-1{fill:#3047d3;}</style></defs><title>Artboard 8 copy 5</title><path class="cls-1" d="M60.23,37.41a7.39,7.39,0,0,1-1,3.59L40.44,19.93,59.07,3.62a7.4,7.4,0,0,1,1.16,4V37.41ZM30.4,23.75,56.33,1.07A7.36,7.36,0,0,0,52.77.13H8a7.34,7.34,0,0,0-3.55.94Zm7.23-1.37-6,5.25a1.87,1.87,0,0,1-2.45,0l-6-5.25L4.09,43.73A7.37,7.37,0,0,0,8,44.87H52.77a7.37,7.37,0,0,0,3.93-1.15ZM1.73,3.62a7.4,7.4,0,0,0-1.16,4V37.42a7.37,7.37,0,0,0,1,3.59L20.36,19.92Z"/></svg>