<svg id="Layer_1" data-name="Layer 1" xmlns="http://www.w3.org/2000/svg" viewBox="0 0 245 215"><defs><style>.cls-1{fill:#3047d3;}</style></defs><title>Artboard 10</title><path class="cls-1" d="M165.39,200.1a4,4,0,0,0-5.35-1.86,84.33,84.33,0,0,1-89.73-10.48A31.87,31.87,0,1,0,64,192.94a92.39,92.39,0,0,0,99.55,12.52A4,4,0,0,0,165.39,200.1ZM23.34,165.87a23.84,23.84,0,1,1,23.84,23.84A23.88,23.88,0,0,1,23.34,165.87Z"/><path class="cls-1" d="M31.3,118a4,4,0,0,0,3.89,4.16h.13a4,4,0,0,0,4-3.89A84.2,84.2,0,0,1,80.13,48.81a89.27,89.27,0,0,1,12-6,31.78,31.78,0,1,0-1.72-10.26c0,.8,0,1.55.09,2.3A93.8,93.8,0,0,0,76,42,92.09,92.09,0,0,0,31.3,118Zm91-109.33A23.82,23.82,0,1,1,98.44,32.49,23.88,23.88,0,0,1,122.27,8.7Z"/><path class="cls-1" d="M200.2,134a31.89,31.89,0,1,0,14.46,3.49A94.88,94.88,0,0,0,216,121.69a92.21,92.21,0,0,0-42.1-77.53,4,4,0,1,0-4.33,6.72,84.12,84.12,0,0,1,38.48,70.8,86.57,86.57,0,0,1-1,13.09A31.92,31.92,0,0,0,200.2,134ZM224,165.87A23.84,23.84,0,1,1,200.2,142,23.88,23.88,0,0,1,224,165.87Z"/></svg>