<svg id="Layer_1" data-name="Layer 1" xmlns="http://www.w3.org/2000/svg" viewBox="0 0 45.87 45"><defs><style>.cls-1{fill:#3047d3;}</style></defs><title>Artboard 8 copy 6</title><path class="cls-1" d="M14.6,14.93,4.26,4.57l4-4a1.59,1.59,0,0,1,2.24,0l8.06,8.07a1.6,1.6,0,0,1,0,2.25l-1.77,1.76-1.64,1.64A4.53,4.53,0,0,0,14.6,14.93Zm8.51,16.87c-1.69-1.46-3.32-3-4.9-4.58S15.1,24,13.64,22.31a5.1,5.1,0,0,1-.8-5.06L2.22,6.62C-.26,9.16.06,15.46,2.77,21A39.87,39.87,0,0,0,7,27.61a59.27,59.27,0,0,0,5.06,5.78,56.46,56.46,0,0,0,5.77,5.08,39.88,39.88,0,0,0,6.6,4.22c5.55,2.71,11.85,3,14.39.53L28.19,32.59A5.12,5.12,0,0,1,23.12,31.79Zm21.76,3.14-8.06-8.07a1.61,1.61,0,0,0-2.25,0h0l-1.77,1.77-1.63,1.64a5,5,0,0,1-.66.54L40.85,41.18l4-4A1.58,1.58,0,0,0,44.88,34.93Z"/></svg>