<svg id="Layer_1" data-name="Layer 1" xmlns="http://www.w3.org/2000/svg" viewBox="0 0 117.79 143"><title>Artboard 5 copy 2</title><path d="M24.54,40.7h30.8a2.37,2.37,0,1,0,0-4.74H24.54a2.37,2.37,0,0,0,0,4.74Z"/><path d="M24.54,114.15h30.8a2.37,2.37,0,1,0,0-4.74H24.54a2.37,2.37,0,0,0,0,4.74Z"/><path d="M24.54,54.92H93.25a2.37,2.37,0,0,0,0-4.74H24.54a2.37,2.37,0,0,0,0,4.74Z"/><path d="M24.54,83.35H93.25a2.37,2.37,0,1,0,0-4.74H24.54a2.37,2.37,0,1,0,0,4.74Z"/><path d="M24.54,99.93H93.25a2.37,2.37,0,1,0,0-4.74H24.54a2.37,2.37,0,0,0,0,4.74Z"/><path d="M24.54,69.13H57.71a2.37,2.37,0,0,0,0-4.74H24.54a2.37,2.37,0,0,0,0,4.74Z"/><path d="M93.25,64.39H76.66a2.37,2.37,0,0,0,0,4.74H93.25a2.37,2.37,0,0,0,0-4.74Z"/><path d="M65.51,65.08a2.34,2.34,0,0,0-.69,1.68,2.48,2.48,0,0,0,.69,1.68,2.35,2.35,0,0,0,1.68.69,2.35,2.35,0,0,0,2.37-2.37,2.35,2.35,0,0,0-.69-1.68A2.46,2.46,0,0,0,65.51,65.08Z"/><path d="M86.14,5.16H71.93V2.79A2.37,2.37,0,0,0,69.56.42H48.23a2.37,2.37,0,0,0-2.37,2.37V5.16H.85V142.58H116.94V5.16Zm-19,0v7.11H50.6V5.16ZM45.87,9.9V17H71.93V9.9H83.77v9.48H34V9.9ZM29.28,21.75v2.37H88.51V17h16.58V130.73H12.7V17H29.28ZM112.2,137.84H5.59V9.9H29.28v2.37H8v123.2H109.83V12.27H88.51V9.9H112.2Z"/></svg>