<svg id="Layer_1" data-name="Layer 1" xmlns="http://www.w3.org/2000/svg" viewBox="0 0 148.29 143"><title>Artboard 5 copy</title><path d="M115.55,104.57a2.86,2.86,0,0,0,0-2.45l-39.2-78.4c-1-1.71-3.67-1.71-4.41,0l-39.2,78.4a2.22,2.22,0,0,0,0,2.45,2.92,2.92,0,0,0,2.2,1.23h78.4A2.57,2.57,0,0,0,115.55,104.57ZM38.87,100.9,74.15,30.34l35.28,70.56Z"/><path d="M71.7,54.35V81.3a2.45,2.45,0,0,0,4.9,0V54.35a2.45,2.45,0,1,0-4.9,0Z"/><path d="M74.15,88.65A2.45,2.45,0,1,0,76.6,91.1,2.31,2.31,0,0,0,74.15,88.65Z"/><path d="M74.15.45A73.71,73.71,0,0,0,.65,73.95a70.72,70.72,0,0,0,28.51,56.94l-3.52,5.29a2.9,2.9,0,0,0-.24,2.45c.49.73,1.23,1.47,2,1.47L47,142.55h.24a4.4,4.4,0,0,0,2.2-1,2.64,2.64,0,0,0,0-2.69l-9.8-17.15a2.18,2.18,0,0,0-2-1.23,2,2,0,0,0-2.2,1l-3.54,5.31c-16.84-13-26.35-31.88-26.35-52.84a68.6,68.6,0,1,1,97,62.47,2.43,2.43,0,0,0-1.23,3.18,2.35,2.35,0,0,0,2.2,1.47,1.47,1.47,0,0,0,1-.24A73.47,73.47,0,0,0,74.15.45Zm-37,127.15,5.39,9.55-10.78-1.47,2.38-3.57a2.61,2.61,0,0,0,.31-.35,2.47,2.47,0,0,0,.41-.74Z"/></svg>