<svg id="Layer_1" data-name="Layer 1" xmlns="http://www.w3.org/2000/svg" viewBox="0 0 246.38 215"><defs><style>.cls-1{fill:#3047d3;}</style></defs><title>Artboard 11</title><path class="cls-1" d="M227.23,179.34H19.12A18.6,18.6,0,0,1,.54,160.75V19.54A18.6,18.6,0,0,1,19.12,1H227.23a18.6,18.6,0,0,1,18.58,18.58V160.75A18.6,18.6,0,0,1,227.23,179.34ZM19.12,8.39A11.16,11.16,0,0,0,8,19.54V160.75A11.16,11.16,0,0,0,19.12,171.9H227.23a11.16,11.16,0,0,0,11.15-11.15V19.54A11.16,11.16,0,0,0,227.23,8.39Z"/><path class="cls-1" d="M170.56,214.87H75.79a3.72,3.72,0,0,1,0-7.43h94.77a3.72,3.72,0,0,1,0,7.43Z"/><path class="cls-1" d="M144.61,72a12.58,12.58,0,1,1,12.58-12.58A12.59,12.59,0,0,1,144.61,72Zm0-17.73a5.14,5.14,0,1,0,5.14,5.14A5.16,5.16,0,0,0,144.61,54.23Z"/><path class="cls-1" d="M144.61,126.33a12.58,12.58,0,1,1,12.58-12.58A12.59,12.59,0,0,1,144.61,126.33Zm0-17.73a5.15,5.15,0,1,0,5.14,5.15A5.16,5.16,0,0,0,144.61,108.6Z"/><path class="cls-1" d="M94.74,99.14a12.58,12.58,0,1,1,12.58-12.58A12.59,12.59,0,0,1,94.74,99.14Zm0-17.73a5.14,5.14,0,1,0,5.14,5.14A5.15,5.15,0,0,0,94.74,81.42Z"/><path class="cls-1" d="M102.67,86.31a3.72,3.72,0,0,1-1.84-7l34-19.27a3.72,3.72,0,0,1,3.67,6.47l-34,19.27A3.64,3.64,0,0,1,102.67,86.31Z"/><path class="cls-1" d="M136.69,113.5a3.79,3.79,0,0,1-1.83-.48l-34-19.27a3.72,3.72,0,0,1,3.67-6.47l34,19.27a3.72,3.72,0,0,1-1.84,6.95Z"/><path class="cls-1" d="M123.18,214.87a3.72,3.72,0,0,1-3.72-3.72V175.62a3.72,3.72,0,1,1,7.43,0v35.54A3.71,3.71,0,0,1,123.18,214.87Z"/></svg>